<?xml version="1.0" encoding="UTF-8"?>
<svg id="Layer_2" data-name="Layer 2" xmlns="http://www.w3.org/2000/svg" viewBox="0 0 130.77 174.14">
  <defs>
    <style>
      .cls-1 {
        fill: #e5cfb3;
      }

      .cls-2 {
        fill: #5d6cb5;
      }

      .cls-3 {
        fill: #e5dcb5;
      }

      .cls-4 {
        fill: #544146;
      }

      .cls-5 {
        fill: #677bc6;
      }

      .cls-6 {
        fill: #3e528c;
      }

      .cls-7 {
        fill: #c1ba9d;
      }

      .cls-8 {
        fill: #aa5263;
      }

      .cls-9 {
        fill: #ead371;
      }

      .cls-10 {
        fill: #f7f1d7;
      }

      .cls-11 {
        fill: #77313f;
      }

      .cls-12 {
        fill: #fffade;
      }

      .cls-13 {
        fill: #f9cd53;
      }

      .cls-14 {
        fill: #7c92d8;
      }

      .cls-15 {
        fill: #71a5d3;
      }

      .cls-16 {
        fill: #473c3e;
      }

      .cls-17 {
        fill: #7c3d31;
      }

      .cls-18 {
        fill: #77322d;
      }

      .cls-19 {
        fill: #685256;
      }

      .cls-20 {
        fill: #5a4949;
      }

      .cls-21 {
        fill: #76569b;
      }

      .cls-22 {
        fill: #afac2b;
      }

      .cls-23 {
        fill: #964854;
      }

      .cls-24 {
        fill: #e0d9bd;
      }

      .cls-25 {
        fill: #d27558;
      }

      .cls-26 {
        fill: #edb984;
      }

      .cls-27 {
        fill: #ccc4a3;
      }

      .cls-28 {
        fill: #632b25;
      }

      .cls-29 {
        fill: #ede9d9;
      }

      .cls-30 {
        fill: #5497d3;
      }

      .cls-31 {
        fill: #e59120;
      }

      .cls-32 {
        fill: #8e3d49;
      }

      .cls-33 {
        fill: #fcedd6;
      }

      .cls-34 {
        fill: #e79b69;
      }

      .cls-35 {
        fill: #876872;
      }

      .cls-36 {
        fill: #8e727b;
      }

      .cls-37 {
        fill: #ceb8a1;
      }

      .cls-38 {
        fill: #c6c639;
      }

      .cls-39 {
        fill: #eaad4b;
      }

      .cls-40 {
        fill: #4a5b99;
      }

      .cls-41 {
        fill: #dd2c2c;
      }

      .cls-42 {
        fill: #f4df87;
      }

      .cls-43 {
        fill: #583e7c;
      }
    </style>
  </defs>
  <g id="_1" data-name="1">
    <g>
      <path class="cls-30" d="m101.3,77.1c0,19.14-15.57,34.7-34.7,34.7-1.61,0-3.19-.12-4.74-.33.4.52.82,1.04,1.24,1.54,1.15.11,2.32.17,3.5.17,19.9,0,36.08-16.19,36.08-36.08,0-9.3-3.54-17.79-9.34-24.19-.65-.04-1.31-.07-1.97-.08,6.14,6.26,9.93,14.83,9.93,24.27Z"/>
      <path class="cls-41" d="m16.94,55.55c-1.53-19.07,12.74-35.84,31.81-37.38,1.6-.13,3.19-.14,4.75-.05-.44-.49-.9-.97-1.36-1.43-1.16-.02-2.32.01-3.5.11-19.83,1.59-34.67,19.03-33.07,38.86.75,9.27,4.95,17.45,11.25,23.37.65,0,1.31-.03,1.97-.08-6.62-5.75-11.09-13.99-11.85-23.4Z"/>
      <path class="cls-11" d="m42.52,43.75c.58-1.15.71-2.25.29-2.46-.42-.21-1.22.55-1.8,1.7-.58,1.15-.71,2.25-.29,2.46.42.21,1.22-.55,1.8-1.7Z"/>
      <g>
        <path class="cls-37" d="m61.68,145.81s1.63-6.42,2.45-6.97c.81-.56,1.99-.37,2.41-.19.41.19-.9,6.88-.9,6.88l-3.95.28Z"/>
        <path class="cls-1" d="m66.56,139.94c-.99.63-1.68,1.7-2.61,2.77-.68.77-1.57,1.37-2.01,2.16-.15.57-.25.94-.25.94l3.95-.28s.71-3.6.92-5.59Z"/>
        <path class="cls-37" d="m64.49,138.65l.57,2.66c3.58-4.41,8.97-2.82,10.95-1.28l1.99-2.16s-4.67-1.88-13.51.78Z"/>
        <path class="cls-1" d="m77.14,145.39c-1.11-3.76-2.48-7.09-2.14-7.52.34-.43,2.48-.43,2.99,0,.51.43,4.27,8.03,4.27,8.03l-5.12-.51Z"/>
        <path class="cls-31" d="m82.16,144.17h-11.07l.8,3.6h12.73l-.44-1.98c-.21-.95-1.05-1.62-2.02-1.62Z"/>
        <path class="cls-17" d="m53.57,173.65h41.74c.92,0,1.6-.85,1.41-1.75-1.18-5.41-4.82-21.66-6.41-23.36-1.92-2.05-11.4-5-13.45-4.87-2.05.13-18.19.64-21.01,1.67-2.33.85-3.87,19.58-4.33,26.1-.09,1.2.86,2.21,2.07,2.21Z"/>
        <path class="cls-28" d="m86.83,171.64c-.51-5.85-2.06-22.63-3.4-26.39-.92-.3-1.83-.57-2.67-.8,1.35,3.87,2.92,21.74,3.44,27.95.04.45-.08.89-.28,1.25h1.3c.92,0,1.7-.98,1.61-2.02Z"/>
        <path class="cls-28" d="m53.57,173.65h19.27c1.13,0,2.02-.94,1.96-2.07-.37-6.36-1.17-25.35,2.05-27.91-2.05.13-18.19.64-21.01,1.67-2.33.85-3.87,19.58-4.33,26.1-.09,1.2.86,2.21,2.07,2.21Z"/>
        <path class="cls-31" d="m84.07,145.45c-1.36-.89-2.65-1.1-3.78-1.17.38.13.76.27,1.14.41,1.36,2.29,2.81,21.35,3.26,27.75.03.44-.09.86-.3,1.22h1.3c.92,0,1.72-.95,1.64-1.96-.45-6.04-1.9-24.07-3.26-26.24Z"/>
        <path class="cls-18" d="m64.91,147.78c3.67.73,6.99,2.1,9.79,3.91.32-3.93.96-7.08,2.14-8.01-2.05.13-18.19.64-21.01,1.67-.45.16-.87,1-1.26,2.27,3.23-.56,6.74-.55,10.33.17Z"/>
        <path class="cls-28" d="m76.84,143.68c-2.05.13-18.19.64-21.01,1.67-.18.07-.35.25-.52.51,3.73-.94,18.61-1.42,20.57-1.54-3.23,2.55-2.42,21.54-2.05,27.91.03.51-.14.98-.44,1.34.85-.25,1.46-1.05,1.4-1.98-.37-6.36-1.17-25.35,2.05-27.91Z"/>
        <path class="cls-17" d="m73.62,171.14c0-.74-.38-1.34-.84-1.34s-.84.6-.84,1.34.38,1.34.84,1.34.84-.6.84-1.34Z"/>
        <path class="cls-28" d="m78,145.72c0-.59-.3-1.07-.67-1.07s-.67.48-.67,1.07.3,1.07.67,1.07.67-.48.67-1.07Z"/>
        <path class="cls-28" d="m77.6,171.06c0-.59-.3-1.07-.67-1.07s-.67.48-.67,1.07.3,1.07.67,1.07.67-.48.67-1.07Z"/>
        <path class="cls-28" d="m90.19,149.06c-.19-.43-.59-.67-.9-.53-.31.13-.4.59-.21,1.02.19.43.59.67.9.53.31-.14.4-.59.21-1.02Z"/>
        <path class="cls-28" d="m95.39,171.6c-.19-.43-.59-.67-.9-.53-.31.13-.4.59-.21,1.02.19.43.59.67.9.53.31-.13.4-.59.21-1.02Z"/>
        <path class="cls-17" d="m54.16,171.14c0-.74-.38-1.34-.84-1.34s-.84.6-.84,1.34.38,1.34.84,1.34.84-.6.84-1.34Z"/>
      </g>
      <path class="cls-23" d="m31.93,57.75h-5.83c-.75,0-1.4.54-1.52,1.28-1.33,7.84-1.28,15.7,0,23.56.12.74.77,1.29,1.52,1.29h5.82c.85,0,1.54-.69,1.54-1.54v-23.04c0-.85-.69-1.54-1.54-1.54Z"/>
      <path class="cls-38" d="m34.92,101.4c-5.91,1.23-5.44,12.58,5.48,9.98,15.84-3.78,22.69-3.82,22.69-3.82l-.92-9s-22.84,1.92-27.25,2.84Z"/>
      <path class="cls-22" d="m62.17,98.56s-22.84,1.92-27.25,2.84c-1.77.37-2.96,1.65-3.48,3.19,1.44-.82,3.36-.98,5.2-.29,3.02,1.14,4.69,4.13,3.72,6.7-.06.15-.12.29-.19.43.08-.02.15-.03.23-.05,15.84-3.78,22.69-3.82,22.69-3.82l-.92-9Z"/>
      <path class="cls-39" d="m34.59,53.99l.28-14.26s8.4,2.25,14.88,4.48c6.48,2.23,10.64,1.32,13.21,1.16,4.21-.26,4.42,10.42-2.05,10.21-6.48-.21-26.32-1.58-26.32-1.58Z"/>
      <path class="cls-23" d="m44.74,53.18l-.59-.22c1.61-1.62,2.38-5.31,1.59-7.9-.53-1.72-1.74-2.69-3.09-3.11-.52-.1-.39-.78.13-.68,1.73.33,3.01,1.61,3.62,3.59.88,2.86.15,6.51-1.65,8.32Z"/>
      <path class="cls-13" d="m61.69,53.56c.27.43.62.79,1,1.09,3.45-1.11,3.61-6.72,1.54-8.17-.22.1-.44.22-.65.35-2.43,1.54-3.28,4.56-1.89,6.73Z"/>
      <path class="cls-13" d="m39.62,46.55c0-4.03-2.93-7.15-6.54-6.96-3.61.19-6.54,3.61-6.54,7.65s2.93,7.15,6.54,6.96,6.54-3.61,6.54-7.65Z"/>
      <path class="cls-23" d="m31.94,102.54c1.85,1.23,16.8-2.37,16.8-2.37l12.12-39.41s1.1-4.68.18-5.69c-.92-1.01-20.48-2.76-22.14-2.66-1.65.09-10.66,2.39-11.67,3.49s-1.93,17.36-1.19,24.53c.63,6.15,4.79,21.38,5.89,22.12Z"/>
      <path class="cls-8" d="m36.63,64.01c1.5-4.23,2.24-8.32,2.24-11.6-1.74.12-10.62,2.39-11.63,3.49-.92,1-1.76,14.59-1.35,22.42,3.48-.65,7.96-6.45,10.74-14.3Z"/>
      <path class="cls-8" d="m32.13,87.14c-1.72.24-3.1,1.67-3.98,3.81,1.43,5.68,3.14,11.16,3.79,11.59.86.57,4.55.1,8.25-.57.11-1.34.08-2.78-.13-4.27-.87-6.31-4.42-11.04-7.94-10.56Z"/>
      <path class="cls-10" d="m61.37,57.06c8.21,2.58,13.03,17.6,14.13,19.88,1.1,2.27-5.43,8.39-7.29,7.5-1.86-.9-6.84-27.38-6.84-27.38Z"/>
      <path class="cls-16" d="m77.03,81.28c.75-3.15-1.25-6.1-4.48-6.59-3.22-.49-6.45,1.68-7.2,4.83-.75,3.15,1.25,6.1,4.48,6.59,3.22.49,6.45-1.68,7.2-4.83Z"/>
      <path class="cls-32" d="m64.6,42.12c-.63-1.89-2.36-1.25-2.36-1.25,0,0,1.08-1.61-.14-2.96-1.25-1.37-1.99-.44-1.99-.44,0,0-.67-3.57-3.28-3.15-2.62.42-2.9,3.05-2.9,3.05,0,0-1.49-1.44-3.65-.12-2.31,1.42-1.08,3.98-1.08,3.98-1.43.59.16,2.54.16,2.54-1.74.54-.7,2.61-.7,2.61-1.55.43-.77,3.18,1.05,3.45l8.45.07c2.63.39,2.31-1.95,2.31-1.95,0,0,.67.95,1.67-.06,1.01-1.01.38-2.55.38-2.55,0,0,2.68-1.36,2.06-3.21Z"/>
      <path class="cls-11" d="m64.57,43.29c-.27-.06-.51-.21-.68-.48,0,0-1.68,1.6-2.7.09,0,0-1.41,2.09-2.39.89,0,0-2.09,1.92-4.12.12-1.9-1.68-.95-3.52-.95-3.52,0,0-2.6.5-3.77-1.88-.14-.28-.21-.56-.24-.82-1.52,1.45-.52,3.54-.52,3.54-1.43.59.16,2.54.16,2.54-1.74.54-.7,2.61-.7,2.61-1.55.43-.77,3.18,1.05,3.45l8.45.07c2.63.39,2.31-1.95,2.31-1.95,0,0,.67.95,1.67-.06,1.01-1.01.38-2.55.38-2.55,0,0,1.6-.81,2.04-2.04Z"/>
      <path class="cls-21" d="m69.94,87.51c.73,19.66-13.48,86.05-13.48,86.05l-5.71-70.55-.23-12.37,14.21-3.61,5.22.47Z"/>
      <path class="cls-43" d="m61.47,86.22l-10.95,4.43-.86,13.11,6.79,69.76c1.12-18.69,5.11-67.95,5.02-87.29Z"/>
      <path class="cls-21" d="m42.09,92.78c-1.1,15.62,5.33,80.6,5.33,80.6,0,0,11.05-49.42,13.07-67.43l3.67-1.84.55-17.09-22.63,5.75Z"/>
      <polygon class="cls-43" points="65.22 90.76 61.89 91.63 61.89 94.55 65.22 93.69 65.22 90.76"/>
      <path class="cls-43" d="m48.45,95.73l21.5-4.62.15-4.53-28,6.21c-1.1,15.62,5.33,80.6,5.33,80.6,0,0,.05-.22.14-.62-.42-16-.03-64.11.89-77.04Z"/>
      <path class="cls-29" d="m48.51,174.13h-6.54s4.66-2.74,5.25-3.35,1.3,3.35,1.3,3.35Z"/>
      <path class="cls-29" d="m56.22,174.13h6.01s-4.69-2.74-5.32-3.35c-.64-.61-.68,3.35-.68,3.35Z"/>
      <path class="cls-16" d="m44.81,61.83c1.26-3.54,1.03-6.86-.52-7.41s-3.84,1.86-5.1,5.4c-1.26,3.54-1.03,6.86.52,7.41s3.84-1.86,5.1-5.4Z"/>
      <path class="cls-16" d="m61.29,58.05c.36-1.02-.6-2.29-2.15-2.85s-3.11-.18-3.47.84c-.36,1.02.6,2.29,2.15,2.85,1.55.56,3.11.18,3.47-.84Z"/>
      <path class="cls-10" d="m41.74,93.81c9.6-.66,19.17-1.79,28.59-5.22-.2-4.75-1.57-25.74-9-30.8-7.47-5.1-13.09-4.3-15.71-3.26-13.28,5.28-4.4,32.06-3.88,39.29Z"/>
      <path class="cls-3" d="m67.84,70.23c-.97,4.35-3.43,7.68-6.99,8.74-6.27,1.87-13.55-4.01-16.27-13.12-1.09-3.65-1.28-7.26-.71-10.41-10.68,6.9-2.63,31.48-2.13,38.37,2.2-.15,4.39-.33,6.58-.55.08-5.46,5.23-9.87,11.58-9.87,4.42,0,8.26,2.14,10.21,5.27.07-.03.15-.05.22-.08-.12-2.75-.63-10.96-2.48-18.36Z"/>
      <path class="cls-3" d="m51.67,60.22c4.21,0,7.97-.69,10.5-1.77-.27-.25-.55-.48-.84-.68-7.47-5.1-13.09-4.3-15.71-3.26-2.05.82-3.57,2.15-4.68,3.84,2.53,1.14,6.39,1.86,10.73,1.86Z"/>
      <path class="cls-25" d="m47.89,53.89c.34-2.4,2.5-6.58,2.5-6.58l4.78,2.16-.31,5.07c-1.43,1.96-4.55,2.31-6.96-.64Z"/>
      <path class="cls-26" d="m50.99,54.43c-.65-1.75-1.2-5.4-.94-6.42s3.88-5.94,7.37-4.93,1.29,6.61.83,8.22c-.46,1.61-1.29,4.09-1.61,4.27-.32.18-4.8,1.13-5.65-1.15Z"/>
      <path class="cls-11" d="m55,43.3c-.51,2.25-3.01,5.7-3.01,5.7l-1.41-1.41.24-2.34,2.65-2.75c.63-.65,1.74-.08,1.54.81Z"/>
      <path class="cls-26" d="m50.51,48.87c-2.33-1.17-1.8-3.8-.62-4.36,1.17-.55,1.78,1.38,1.69,2.28-.09.9-1.07,2.07-1.07,2.07Z"/>
      <path class="cls-10" d="m33.56,84.79c-2.81-8.25,4.35-26.43,9.47-28.61s4.65,14.84,3.2,18.42c-1.45,3.58-1.93,9.16-5.32,11.7-1.55,1.16-6.32,1.52-7.35-1.51Z"/>
      <path class="cls-3" d="m43.03,56.17c-.42.18-.86.48-1.31.86,1.21,1.88,2.02,5.27,2.01,9.14,0,5.91-1.91,10.7-4.24,10.7-2.07,0-3.79-3.8-4.14-8.8-2.11,5.88-3.23,12.56-1.81,16.71,1.03,3.03,5.8,2.67,7.35,1.51,3.4-2.54,3.88-8.12,5.32-11.7s1.92-20.6-3.2-18.42Z"/>
      <path class="cls-16" d="m47.63,76.99c-2.5-.11-2.26-16.63-6.18-19.69-1.24-.97,1.99-3.48,3.69-2.78s3.59,4.32,4.18,8.95c.78,6.09.11,13.6-1.69,13.53Z"/>
      <path class="cls-19" d="m45.8,54.93c-1.52.34-2.61,1.94-3.04,4.14,1.22,2.47,1.88,6.57,2.48,10.22,1.09,1.27,2.39,1.93,3.64,1.7.25-.05.48-.13.7-.24.12-2.29.04-4.9-.27-7.29-.52-4.03-2.02-7.29-3.51-8.53Z"/>
      <path class="cls-16" d="m67.12,73.57c-2.38-1.83-4.04-12.54-8.1-17.32-1.29-1.52,1.49-.89,3.17.76s3.89,5.37,4.98,8.84c1.44,4.56,1.66,9.04-.05,7.72Z"/>
      <path class="cls-19" d="m67.47,66.89c-.1-.34-.19-.69-.3-1.04-1.05-3.35-3.15-6.93-4.8-8.66-.58.51-1.07,1.21-1.42,2.03,1.45,2.8,2.55,6.24,3.55,9.09.06,0,.11.01.17.01,1.07,0,2.05-.54,2.8-1.43Z"/>
      <path class="cls-26" d="m69.97,85.23c-3.48-1.35-5.72-6.68-5.99-8.13-.28-1.45,3.63-4.55,5.72-4.2,2.09.34,4.37,1.72,6.03,4.06,1.65,2.34-1.14,10.06-5.75,8.27Z"/>
      <path class="cls-34" d="m69.67,73.05c-.73-.88-1.62,1.19-2.11.31-1.87.87-3.77,2.72-3.58,3.75.28,1.45,2.52,6.78,5.99,8.13,3.14,1.22,5.43-1.96,6.06-4.85-1.8-.06-4.15-4.68-6.37-7.34Z"/>
      <path class="cls-30" d="m125.9,36.15h-46.48c-2.69,0-4.87,2.7-4.87,6.04v14.24c0,3.33,2.18,6.04,4.87,6.04h46.48c2.69,0,4.87-2.7,4.87-6.04v-14.24c0-3.33-2.18-6.04-4.87-6.04Z"/>
      <polygon class="cls-30" points="94.25 51.58 85.99 51.58 80.61 73.62 94.25 51.58"/>
      <rect class="cls-10" x="82.15" y="80.62" width="32.32" height="23.25"/>
      <polygon class="cls-43" points="66.08 103.28 60.79 107.18 58.21 104.54 61.74 104.74 66.08 103.28"/>
      <path class="cls-22" d="m36.45,106.2c-.61-.77-1.62-.97-2.26-.46-.64.51-.66,1.54-.04,2.31.61.77,1.62.97,2.26.46.64-.51.66-1.54.04-2.31Z"/>
      <g>
        <path class="cls-22" d="m38.64,105.52c-1.06-1.32-2.65-1.87-3.96-1.49,1.09-.13,2.31.36,3.15,1.41,1.19,1.49,1.16,3.51-.09,4.5-1.24.99-3.22.59-4.41-.91-.11-.13-.19-.27-.28-.41.15.32.32.63.56.92,1.34,1.67,3.55,2.13,4.94,1.01s1.43-3.37.1-5.04Z"/>
        <path class="cls-22" d="m33.16,103.99c.29-.23.62-.38.97-.48-.46.06-.9.21-1.26.51-1.13.9-1.25,2.65-.36,4.09-.71-1.5-.49-3.2.65-4.12Z"/>
      </g>
      <path class="cls-25" d="m50.4,48.01c-1.46-.73-1.12-2.38-.39-2.73s1.11.86,1.06,1.43c-.06.56-.67,1.3-.67,1.3Z"/>
      <path class="cls-26" d="m50.4,48.23c-.98-.49-.75-1.59-.26-1.83s.75.58.71.96c-.04.38-.45.87-.45.87Z"/>
      <g>
        <path class="cls-39" d="m30.4,43.39c-1.03.93-1.68,2.27-1.68,3.72,0,1.22.46,2.31,1.21,3.12-.52-.86-.82-1.89-.82-3.03,0-1.44.49-2.78,1.29-3.82Z"/>
        <path class="cls-39" d="m33.08,41.26c-1.49.08-2.83.88-3.76,2.08.85-.77,1.97-1.27,3.18-1.33,2.69-.13,4.87,1.93,4.87,4.6s-2.18,4.93-4.87,5.05c-1.46.07-2.76-.51-3.65-1.47.9,1.49,2.46,2.43,4.23,2.34,2.79-.15,5.05-2.79,5.05-5.9s-2.26-5.51-5.05-5.37Z"/>
      </g>
      <path class="cls-39" d="m33.4,44.31c-.87-.08-1.65.61-1.96,1.6.24-.54.72-.89,1.23-.85.69.06,1.19.82,1.11,1.7-.08.88-.7,1.54-1.39,1.48-.49-.04-.87-.43-1.03-.97.17.96.8,1.71,1.62,1.78,1.03.09,1.97-.9,2.08-2.21.12-1.31-.63-2.45-1.66-2.54Z"/>
      <polygon class="cls-7" points="64.71 91.17 62.48 91.75 62.48 93.72 64.71 93.14 64.71 91.17"/>
      <path class="cls-16" d="m45.79,79.09c-1.33-2.59-5.23-3.36-8.7-1.72s-5.21,5.08-3.88,7.67c1.33,2.59,5.23,3.36,8.7,1.72s5.21-5.08,3.88-7.67Z"/>
      <path class="cls-26" d="m34.12,83.61c0-4.25,6.21-10.49,22.05-9.45l1.78,5.17s-10.58,7.85-14.64,8.75c-7.41,1.64-9.18-4.47-9.18-4.47Z"/>
      <path class="cls-34" d="m50.51,77.91c-5.49.9-10.38.87-12.98.07-2.35,1.78-3.41,3.87-3.41,5.63,0,0,1.77,6.11,9.18,4.47,4.06-.9,14.2-8.43,14.2-8.43,0,0-4.65-2.12-6.99-1.73Z"/>
      <g>
        <rect class="cls-4" x="26.95" y="168.99" width="13.43" height="4"/>
        <polygon class="cls-4" points="29.27 128.72 27.15 107.42 28.81 107.15 31.38 129.1 29.27 128.72"/>
        <path class="cls-4" d="m30.84,123.78h-1.75c-.66,0-1.17.57-1.09,1.23l.22,1.89c.06.55.53.97,1.09.97h1.75c.66,0,1.17-.57,1.09-1.23l-.22-1.89c-.06-.55-.53-.97-1.09-.97Z"/>
        <path class="cls-4" d="m13.76,125.7l-1.58.32c-.59.12-1.05.79-.99,1.43l.2,1.85c.06.54.48.88.99.77l1.58-.32c.59-.12,1.05-.79.99-1.43l-.2-1.85c-.06-.54-.48-.88-.99-.77Z"/>
        <polygon class="cls-4" points="12.53 131.4 10.41 110.1 12.07 109.82 14.64 131.78 12.53 131.4"/>
        <path class="cls-40" d="m35.73,126.44c-.71-.92-5.48-1.1-9.87-1.09l-10.95,48.49c12.9,1.37,25.65-2.35,25.98-3.67.34-1.33-4.46-42.81-5.17-43.72Z"/>
        <path class="cls-6" d="m18.23,159.14l-3.32,14.7c12.9,1.37,25.65-2.35,25.98-3.67.11-.43-.31-4.99-.96-11.02h-21.71Z"/>
        <path class="cls-2" d="m10.45,172.93c-4.56-1.51-5.13-9.86-5.38-22.71-.18-8.97-.45-18.7,1.46-20.44,1.89-1.73,18.92-5.58,21.02-4.15,2.12,1.44,9.12,44.1,5.76,46.12-4.65,2.8-17.51,2.96-22.86,1.18Z"/>
        <path class="cls-4" d="m29.31,106.37l-19.98,3.04c-1.43.22-1.05,2.71.38,2.5l19.98-3.04c1.14-.17.76-2.67-.38-2.5Z"/>
        <path class="cls-4" d="m42.16,170.95c0-1.76-.77-3.19-1.72-3.19s-1.72,1.43-1.72,3.19.77,3.19,1.72,3.19,1.72-1.43,1.72-3.19Z"/>
        <path class="cls-40" d="m25.61,128.2c-1.91-1.3-17.38,2.21-19.09,3.77-1.16,1.06-1.43,5.37-1.44,10.54.55.69,1.2,1.17,1.98,1.43,4.86,1.61,16.54,1.47,20.76-1.07.46-.27.7-1.38.78-3.05-1.15-6.29-2.34-11.18-3-11.63Z"/>
        <path class="cls-5" d="m24.92,126.88c-1.91-1.3-17.38,2.21-19.09,3.77-1.16,1.06-1.43,5.37-1.44,10.54.55.69,1.2,1.17,1.98,1.43,4.86,1.61,16.54,1.47,20.76-1.07.46-.27.7-1.38.78-3.05-1.15-6.29-2.34-11.18-3-11.63Z"/>
        <path class="cls-40" d="m28.22,146.08c-1.76-1.1-15.35-.69-20.7.48-1.1.24-1.88,1.27-1.85,2.45.02.92.05,1.84.07,2.75.3,11.84.84,19.52,4.88,20.91,4.74,1.63,15.83.97,20.19-1.09,2.3-1.09-1.55-24.86-2.58-25.51Z"/>
        <path class="cls-5" d="m26.95,145.82c-1.75-1.06-15.35-.66-20.7.46-1.11.23-1.88,1.22-1.86,2.35.02.88.03,1.76.05,2.64.22,11.36.72,18.73,4.75,20.06,4.73,1.57,15.82.93,20.19-1.05,2.31-1.05-1.39-23.84-2.43-24.47Z"/>
        <path class="cls-35" d="m30.17,107.5c-.11-.58-.53-.99-.93-.91-.41.08-.65.61-.54,1.19.11.58.53.99.93.91.41-.08.65-.61.54-1.19Z"/>
        <path class="cls-36" d="m41.97,170.95c0-1.22-.43-2.21-.97-2.21s-.97.99-.97,2.21.43,2.21.97,2.21.97-.99.97-2.21Z"/>
        <path class="cls-14" d="m4.49,136.83c2.87-.11,5.96-.54,9.12-1.33,4.88-1.22,9.19-3.11,12.54-5.31-.49-1.88-.92-3.09-1.24-3.31-1.91-1.3-17.38,2.21-19.09,3.77-.81.74-1.19,3.07-1.34,6.18Z"/>
        <path class="cls-14" d="m28.83,153.87c-.69-4.29-1.48-7.8-1.88-8.04-1.75-1.06-15.35-.66-20.7.46-1.11.23-1.88,1.22-1.86,2.35.02.88.03,1.76.05,2.64.02,1.07.05,2.09.07,3.08,3.24.56,6.96.88,10.93.88,5.01,0,9.64-.51,13.39-1.37Z"/>
      </g>
      <rect class="cls-9" x="83.96" y="81.92" width="28.7" height="20.64"/>
      <g>
        <path class="cls-33" d="m107.81,95.1l4.85-1.67v-1.29l-5.37,1.85-2.6-5.52,7.97-4.22v-1.39l-8.49,4.5-2.55-5.43h-1.36l.27.58-8.44,3.19-1.68-3.77h-1.69l1.92,4.31-6.68,2.52v1.31l7.18-2.71,6.49,14.53-1.28.67h3.27l-1.8-4.03,8.82-3.03,3.32,7.06h1.36l-3.51-7.46Zm-10.49,2.32l-4.73-10.61,8.46-3.2,5.07,10.78-8.8,3.03Z"/>
        <polygon class="cls-33" points="83.96 102.51 83.99 102.56 85.73 102.56 83.96 99.21 83.96 102.51"/>
      </g>
      <polygon class="cls-42" points="84.56 90.19 91.05 88.3 96.62 100.93 95.59 102.02 87.49 101.85 92.43 99.78 89.79 94.78 84.51 97.42 84.56 90.19"/>
      <polygon class="cls-42" points="93.58 87.44 97.77 96.05 105 93.75 102.94 89.67 98.57 90.82 96.56 86.46 93.58 87.44"/>
      <polygon class="cls-42" points="99.49 89.04 97.65 85.6 100.64 84.45 102.65 88.76 99.49 89.04"/>
      <polygon class="cls-42" points="102.88 82.61 104.66 85.89 111.43 82.5 102.88 82.61"/>
      <polygon class="cls-42" points="105.58 88.58 107.82 93.12 112.12 91.68 112.06 85.31 105.58 88.58"/>
      <polygon class="cls-42" points="108.81 95.44 111.6 101.99 112.29 101.95 112.25 94.11 108.81 95.44"/>
      <polygon class="cls-42" points="98.47 98.89 100.02 102.07 103.21 102.16 102.48 100.35 104.54 99.84 106.01 102.25 109.37 102.42 106.18 96.09 98.47 98.89"/>
      <polygon class="cls-42" points="91.37 82.44 92.4 84.72 97.52 83 97.31 82.27 91.37 82.44"/>
      <polygon class="cls-42" points="88.22 82.44 89.69 85.93 84.35 88.04 84.39 84.16 86.33 83.47 86.03 82.4 88.22 82.44"/>
      <path class="cls-9" d="m113,102.91h-29.39v-21.33h29.39v21.33Zm-28.7-.69h28.01v-19.95h-28.01v19.95Z"/>
      <g>
        <rect class="cls-10" x="-4.54" y="25.64" width="32.32" height="23.25" transform="translate(-25.64 48.89) rotate(-90)"/>
        <rect class="cls-9" x="-2.72" y="26.94" width="28.7" height="20.64" transform="translate(-25.64 48.89) rotate(-90)"/>
        <g>
          <path class="cls-33" d="m14.48,27.76l-1.67-4.85h-1.29l1.85,5.37-5.52,2.6-4.22-7.97h-1.39l4.5,8.49-5.43,2.55v1.36l.58-.27,3.19,8.44-3.77,1.68v1.69l4.31-1.92,2.52,6.68h1.31l-2.71-7.18,14.53-6.49.67,1.28v-3.27l-4.03,1.8-3.03-8.82,7.06-3.32v-1.36l-7.46,3.51Zm2.32,10.49l-10.61,4.73-3.2-8.46,10.78-5.07,3.03,8.8Z"/>
          <polygon class="cls-33" points="21.89 51.61 21.95 51.58 21.95 49.84 18.59 51.61 21.89 51.61"/>
        </g>
        <polygon class="cls-42" points="9.57 51.01 7.68 44.52 20.31 38.95 21.4 39.99 21.23 48.08 19.16 43.14 14.17 45.78 16.81 51.07 9.57 51.01"/>
        <polygon class="cls-42" points="6.82 42 15.43 37.8 13.13 30.57 9.06 32.64 10.21 37 5.84 39.01 6.82 42"/>
        <polygon class="cls-42" points="8.43 36.08 4.98 37.92 3.83 34.93 8.14 32.92 8.43 36.08"/>
        <polygon class="cls-42" points="2 32.7 5.27 30.92 1.88 24.14 2 32.7"/>
        <polygon class="cls-42" points="7.97 30 12.5 27.76 11.07 23.45 4.69 23.51 7.97 30"/>
        <polygon class="cls-42" points="14.83 26.77 21.37 23.97 21.33 23.28 13.49 23.32 14.83 26.77"/>
        <polygon class="cls-42" points="18.27 37.1 21.46 35.55 21.54 32.37 19.74 33.1 19.22 31.03 21.63 29.57 21.8 26.21 15.47 29.39 18.27 37.1"/>
        <polygon class="cls-42" points="1.82 44.21 4.11 43.17 2.38 38.05 1.65 38.26 1.82 44.21"/>
        <polygon class="cls-42" points="1.82 47.35 5.31 45.89 7.42 51.22 3.55 51.18 2.86 49.24 1.78 49.55 1.82 47.35"/>
        <path class="cls-9" d="m22.29,22.57v29.39H.96v-29.39h21.33Zm-.69,28.7v-28.01s-19.95,0-19.95,0v28.01h19.95Z"/>
      </g>
      <g>
        <rect class="cls-10" x="40.42" y="4.28" width="32.32" height="23.25"/>
        <rect class="cls-9" x="42.23" y="5.58" width="28.7" height="20.64"/>
        <g>
          <path class="cls-33" d="m66.08,18.76l4.85-1.67v-1.29l-5.37,1.85-2.6-5.52,7.97-4.22v-1.39l-8.49,4.5-2.55-5.43h-1.36l.27.58-8.44,3.19-1.68-3.77h-1.69l1.92,4.31-6.68,2.52v1.31l7.18-2.71,6.49,14.53-1.28.67h3.27l-1.8-4.03,8.82-3.03,3.32,7.06h1.36l-3.51-7.46Zm-10.49,2.32l-4.73-10.61,8.46-3.2,5.07,10.78-8.8,3.03Z"/>
          <polygon class="cls-33" points="42.23 26.17 42.26 26.23 44 26.23 42.23 22.87 42.23 26.17"/>
        </g>
        <polygon class="cls-42" points="42.83 13.85 49.32 11.96 54.89 24.59 53.85 25.68 45.76 25.51 50.7 23.44 48.05 18.45 42.77 21.09 42.83 13.85"/>
        <polygon class="cls-42" points="51.84 11.1 56.03 19.71 63.27 17.41 61.2 13.34 56.84 14.49 54.83 10.12 51.84 11.1"/>
        <polygon class="cls-42" points="57.76 12.71 55.92 9.26 58.91 8.11 60.91 12.42 57.76 12.71"/>
        <polygon class="cls-42" points="61.14 6.28 62.92 9.55 69.7 6.16 61.14 6.28"/>
        <polygon class="cls-42" points="63.84 12.25 66.08 16.78 70.39 15.35 70.33 8.97 63.84 12.25"/>
        <polygon class="cls-42" points="67.07 19.11 69.87 25.65 70.56 25.61 70.52 17.77 67.07 19.11"/>
        <polygon class="cls-42" points="56.74 22.55 58.29 25.74 61.47 25.82 60.74 24.02 62.81 23.5 64.27 25.91 67.63 26.08 64.45 19.75 56.74 22.55"/>
        <polygon class="cls-42" points="49.63 6.1 50.67 8.39 55.79 6.66 55.58 5.93 49.63 6.1"/>
        <polygon class="cls-42" points="46.49 6.1 47.95 9.59 42.62 11.7 42.66 7.83 44.6 7.14 44.29 6.06 46.49 6.1"/>
        <path class="cls-9" d="m71.27,26.57h-29.39s0-21.33,0-21.33h29.39s0,21.33,0,21.33Zm-28.7-.69h28.01s0-19.95,0-19.95h-28.01s0,19.95,0,19.95Z"/>
      </g>
      <g>
        <path class="cls-15" d="m108.77,88.21s-7.23-12.08-.1-12.08.1,12.08.1,12.08Z"/>
        <path class="cls-10" d="m106.59,79.4c0,1.15.93,2.09,2.09,2.09s2.09-.93,2.09-2.09-.93-2.09-2.09-2.09-2.09.93-2.09,2.09Z"/>
      </g>
      <g>
        <path class="cls-41" d="m46.66,12.08s-7.23-12.08-.1-12.08.1,12.08.1,12.08Z"/>
        <path class="cls-10" d="m44.47,3.27c0,1.15.93,2.09,2.09,2.09s2.09-.93,2.09-2.09-.93-2.09-2.09-2.09-2.09.93-2.09,2.09Z"/>
      </g>
      <g>
        <path class="cls-41" d="m66.98,24.98s-7.23-12.08-.1-12.08.1,12.08.1,12.08Z"/>
        <path class="cls-10" d="m64.79,16.17c0,1.15.93,2.09,2.09,2.09s2.09-.93,2.09-2.09-.93-2.09-2.09-2.09-2.09.93-2.09,2.09Z"/>
      </g>
      <g>
        <path class="cls-41" d="m9.05,36.2s-7.23-12.08-.1-12.08.1,12.08.1,12.08Z"/>
        <path class="cls-10" d="m6.86,27.38c0,1.15.93,2.09,2.09,2.09s2.09-.93,2.09-2.09-.93-2.09-2.09-2.09-2.09.93-2.09,2.09Z"/>
      </g>
      <g>
        <path class="cls-34" d="m65.99,70.43c-.74-.13-1.79.24-2.57,1s-.63,1.72-.45,2c.18.28,1.25.65,1.62-.34.38-.99,1.12-.83,1.12-.83l.28-1.82Z"/>
        <path class="cls-34" d="m66.04,70.09c1.95-.28,3.87,2.91,4.27,4.57.41,1.66-3.68,3.71-4.72,3.44s-1.87-1.1-1.68-2.22c.19-1.12-1.13-1.26-1.2-1.68-.17-1.03,2.1-3.93,3.33-4.11Z"/>
        <path class="cls-34" d="m64,72.02c-.77.14-1.66.82-2.13,1.76-.47.94.03,1.75.31,1.94s1.47.16,1.46-.85c0-1.01.78-1.12.78-1.12l-.42-1.72Z"/>
      </g>
      <path class="cls-34" d="m56.2,72.29c1.03-.73,2.18-1.3,2.62-1.65.46-.37,1.2-1.45,1.56-1.64s1.21.3,1.35.67c.14.36-1.16,2.13-1.54,2.46-.38.32-1.68,1.49-1.68,1.49l-2.32-1.33Z"/>
      <path class="cls-27" d="m68.07,66.32l-4.51-.47c-.28-.03-.54.12-.66.38l-4.02,8.62c-.19.41.43,1.25.88,1.3l4.16.1c.28.03.54-.12.66-.38l4.54-8.49c.19-.41-.6-1.01-1.05-1.06Z"/>
      <path class="cls-24" d="m68.59,66.72l-4.51-.47c-.28-.03-.54.12-.66.38l-4.02,8.62c-.19.41.08.88.53.93l4.51.47c.28.03.54-.12.66-.38l4.02-8.62c.19-.41-.08-.88-.53-.93Z"/>
      <path class="cls-27" d="m64.77,67.07l-.63-.06s-.08.02-.09.05l-.56,1.2c-.03.06.01.12.07.13l.63.06s.08-.02.09-.05l.56-1.2c.03-.06-.01-.12-.07-.13Z"/>
      <path class="cls-34" d="m64.58,70.24c.61-.47,2.2-.14,2.51.06.31.2,1.59,1.09,1.68,1.35.09.26-.59,1.38-.94,1.2-.35-.19-.78-.8-1.34-1.02-.36-.14-1.81-.18-2.09-.23-.28-.05-.06-1.17.18-1.36Z"/>
      <path class="cls-34" d="m63.3,72c.8-.37,2.58.21,2.91.46s1.65,1.32,1.71,1.59c.05.27-.94,1.27-1.31,1.03-.37-.24-.76-.91-1.37-1.21-.39-.19-2.07-.47-2.39-.56-.32-.09.14-1.16.45-1.3Z"/>
      <path class="cls-34" d="m62.76,74.24c.63-.45,2.2-.07,2.51.14.31.21,1.55,1.14,1.63,1.4.08.26-.64,1.36-.98,1.16-.34-.2-.75-.83-1.3-1.06-.35-.15-1.8-.24-2.08-.3-.28-.06-.02-1.17.22-1.35Z"/>
      <path class="cls-26" d="m53.42,74.13c1.29-1.21,3.57-2.8,5.38-2.2,1.81.6,2.24.26,2.97.73s.69,4.26.13,5.25c-.56.99-3.92,1.59-4.65,1.46s-3.83-5.25-3.83-5.25Z"/>
      <path class="cls-26" d="m59.9,72.22c1.33.13,2.54.13,2.88-.07.34-.19,1.16-1.21,1.55-1.23.39-.02.93.73.9,1.1-.02.37-1.49,1.72-1.94,1.85-.45.13-2.37.28-2.37.28l-1.03-1.93Z"/>
      <path class="cls-26" d="m60,74.33c1.33-.12,2.52-.34,2.82-.6.3-.25.92-1.4,1.3-1.49.38-.09,1.04.55,1.09.91.05.36-1.14,1.97-1.57,2.18-.42.21-2.28.71-2.28.71l-1.37-1.71Z"/>
      <path class="cls-26" d="m59.32,77.17c1.29-.36,2.42-.79,2.67-1.09s.66-1.54,1.01-1.7,1.13.35,1.24.7c.11.35-.77,2.14-1.15,2.42s-2.11,1.11-2.11,1.11l-1.65-1.44Z"/>
      <g>
        <path class="cls-20" d="m55.53,47.91c.21-.6.12-1.14-.2-1.21-.32-.07-.75.35-.96.95-.21.6-.12,1.14.2,1.21.32.07.75-.35.96-.95Z"/>
        <path class="cls-32" d="m56.3,44.98l-2.25-.21c-.19-.02-.36.13-.38.32l-.08.74c-.02.2.11.37.3.39l2.25.21c.19.02.36-.13.38-.32l.08-.74c.02-.2-.11-.37-.3-.39Z"/>
        <path class="cls-20" d="m58.45,48.94c.2-.6.1-1.12-.23-1.17-.32-.05-.75.4-.94,1-.2.6-.1,1.12.23,1.17.32.05.75-.4.94-1Z"/>
        <path class="cls-32" d="m60.1,46.71l-1.83-.96c-.15-.08-.34,0-.42.17l-.3.65c-.08.17-.02.38.13.46l1.83.96c.15.08.34,0,.42-.17l.3-.65c.08-.17.02-.38-.13-.46Z"/>
        <path class="cls-25" d="m56.5,48.44c-.21,1.42-.45,2.27-.95,2.52-.34.17-.71.06-1-.11l-.02.03s.72.68,1.27.42c.48-.23.61-1.18.7-2.86Z"/>
        <path class="cls-25" d="m53.03,51.17l-.37.36s.99,1.15,3.15,1.49v-.22c-1.98-.31-2.78-1.61-2.79-1.62Z"/>
        <path class="cls-25" d="m54.54,53.3c-.06.15-.39.16-.75.02-.36-.14-.6-.37-.54-.52.06-.15.29.11.65.25.36.14.7.1.65.25Z"/>
      </g>
      <g>
        <g>
          <path class="cls-12" d="m82.09,50.27c.04-.11.1-.13.15-.08.08.05.1.17.14.3.03.15.42.97.57,1.29.16.33.31.72.46,1.15.14.42.69,1.53.92,2.05.23.5.78,1.54.93,1.83.14.28.36.8.51.97.03.06.05.11.05.14,0,.08-.1.09-.19.09h-.78c-.09,0-.14-.19-.22-.36-.09-.16-.37-.94-.42-1.11-.05-.16-.19-.44-.27-.61-.05-.18-.11-.22-.19-.22-.08,0-.25.02-.43.03-.17.03-.85.01-1.15.04-.1.01-.23.01-.34.01-.26,0-.52-.01-.57-.01-.1,0-.11.12-.14.24-.02.11-.19.79-.23.99l-.12.46-.09.31c-.04.16-.06.2-.14.2h-.64s-.05-.01-.05-.04.02-.09.04-.15c.04-.1.06-.12.15-.41.09-.29.39-1.29.47-1.74.09-.48.28-1.06.4-1.39.09-.36.14-.53.28-1.03.14-.51.29-1.02.41-1.41l.27-.86c.09-.33.17-.57.22-.69Zm1.1,3.91s-.01-.04-.03-.09c-.08-.13-.41-.9-.52-1.22-.14-.33-.23-.61-.26-.67-.08-.16-.09-.23-.14-.23-.04,0-.08.2-.13.41-.05.17-.23.74-.28.95-.05.23-.18.55-.24.71-.02.08-.03.13-.03.17s.02.06.1.06c.13,0,1.1-.02,1.28-.05.15-.02.25,0,.25-.05Z"/>
          <path class="cls-12" d="m92.33,53.38c.15,0,.32-.01.42-.02.06-.01.13-.01.2-.01s.15,0,.23.01l.25.02.03-.32.03-.52c0-.26.04-1.69.04-1.88.01-.2.03-.27.19-.28.16,0,.36-.03.6-.06.09-.01.19-.01.31-.01.2,0,.42.01.57.03.22.03.16.08.19.26,0,.18-.08,1.26-.08,1.62s-.13,1.54-.13,1.96.02,1.69.02,2.13.01,1.27.04,1.48v.02c0,.2-.13.16-.22.16-.04-.01-.11-.02-.22-.02-.08,0-.16.01-.28.02-.3.03-.76.03-.97.03h-.02c-.18,0-.15-.11-.15-.26s-.01-1.14-.04-1.53c-.01-.2-.02-.53-.02-.8-.01-.16-.01-.32-.01-.5h-.31c-.17,0-.37.01-.46.01-.05,0-.12.01-.19.01-.06,0-.14-.01-.22-.01s-.16,0-.26-.01l-.03.68c-.03.38-.03.78-.03.98v.55c0,.29,0,.58.02.7.03.22-.13.18-.29.18-.16-.01-.44-.04-.62-.04-.18.01-.62.05-.87.06-.23.03-.25-.16-.25-.3s.03-.92.03-1.2c0-.2.02-1.07.02-1.69,0-.24,0-.43-.01-.55-.02-.16-.03-.4-.03-.65,0-.4.02-.83.02-1.08,0-.38.1-1.79.1-1.99,0-.13.05-.15.13-.15.04,0,.1.01.14.01.11.02.57.04.81.04s.63-.02.76-.02h.01c.11,0,.09.11.09.19s.02.73.02,1.3c0,.29-.01.64-.02.93l-.02.5s.25.01.46.01Z"/>
          <path class="cls-12" d="m101.42,54.31c0,1.56-.69,3.93-2.38,3.93-2.37,0-2.55-2.92-2.55-4.08,0-3.1,1.53-3.85,2.48-3.85,2.34,0,2.46,2.42,2.46,4Zm-1.9.1c0-.55-.18-1.08-.5-1.08-.4,0-.54.71-.54,1.17,0,.43.03,1,.46,1s.57-.56.57-1.1Z"/>
          <path class="cls-12" d="m107.49,51.45s.04.06.04.1c0,.04-.03.09-.06.15-.08.1-.26.41-.38.54-.1.12-.1.18-.22.18-.11,0-1.1-1.11-1.88-1.11-.28,0-.69.02-.69.74s.76,1.01,1.26,1.22c.51.23,2.1.74,2.1,2.89,0,1.42-1.16,2.07-2.92,2.07s-2.32-1.12-2.41-1.22c-.03-.04-.04-.08-.04-.11,0-.04.03-.08.09-.14.09-.12.29-.34.41-.46.03-.03.05-.04.09-.04.08,0,.14.12.23.2.12.12.6.64,1.44.64.39,0,1.01-.09,1.01-.74s-.69-1.24-1.17-1.58c-.48-.34-1.96-.84-1.96-2.23s1.57-2.26,2.36-2.26c1.63,0,2.63,1.09,2.71,1.17Z"/>
          <path class="cls-12" d="m112.76,54.71c0,.89.17,2.48.17,2.9.03.42-.31.33-.95.33s-2.22-.04-2.43-.04c-.09,0-.11-.09-.11-.22,0-.18.04-.45.04-.72-.01-.14-.02-.51-.02-.98,0-1.12.03-2.84.1-3.61.02-.28.02-.53.02-.75,0-.33-.01-.61-.03-.8-.12-.01-.16-.01-.19-.01-.17,0-.78.02-.89.02-.08,0-.09-.08-.09-.17,0-.08.01-.15.01-.24,0-.12.04-.14.12-.14.06,0,.15.02.26.02h2.29c.6-.01,2.52-.04,2.78-.04.23.01.17.16.17.34.01.2-.09.25-.26.25s-.41.02-.92.01h-.04c0,.77-.03,3.1-.03,3.85Z"/>
          <path class="cls-12" d="m115.31,54.62c0,.25.04.36.04.6v1.28c.01.18,0,.38,0,.54-.01.1-.01.18-.01.27.14.01.28.01.41.01.23.01.5.01.7.01.4,0,.75.02,1.14.02s.75-.03,1.04-.03.57.02.69.02.12.05.12.17c0,.1-.02.22-.02.33,0,.1-.06.13-.23.13-.05,0-.12,0-.19-.01-.19-.02-.68-.03-1.17-.03-.27,0-.54,0-.78.01-.18.01-.39.01-.6.01-.57,0-1.19-.02-1.41-.02s-.25-.06-.25-.16c0-.05.01-.11.01-.17.01-.04.01-.08.01-.1,0-.08-.02-.14-.02-.61,0-.66-.05-1.5-.05-2.22s.09-1.79.09-2.23,0-1.25-.03-1.65c-.03-.4.52-.22.85-.22s1.23-.06,1.81-.06,1.65.03,1.87.03.18.17.18.29v.12c0,.11,0,.25-.04.25-.12,0-.14-.03-.34-.03h-3.06c-.16-.01-.34.01-.48.02l-.25.02-.02.29c-.01.16-.01.34-.01.51,0,.3.04.58.04.83v.43c0,.09,0,.17.01.27.1.01.19.01.29.01h.43c.18,0,.41-.04.74-.04s.71.04.84.04.3-.03.56-.03c.19,0,.53.03.74.03.06,0,.12,0,.16-.01.02,0,.04-.01.06-.01.12,0,.14.1.13.14-.01.05-.01.3-.02.39-.01.1,0,.12-.16.12-.15,0-1.08-.12-1.49-.12s-.92,0-1.35.03c-.22.03-.45.02-.64.02-.11,0-.2,0-.3-.01l-.03.17c-.01.1-.02.23-.02.34Z"/>
          <path class="cls-12" d="m125.35,57.46h.02c.12,0,.08.06.08.14-.01.08.02.25.02.38,0,.14-.14.11-.31.11-.18,0-1.26-.1-1.64-.1s-2.54.1-2.73.1-.24-.11-.24-.22v-.84c0-.39.04-3.26.04-3.61s-.1-2.51-.1-2.81c0-.14.05-.18.14-.18.11,0,.25.06.39.06.15.02.43.04.72.04.19,0,.38-.01.55-.03.43-.05.26.24.26.5,0,.18-.06,1.43-.06,1.91s.03,2.22.03,2.42c0,.19-.02.99-.02,1.17,0,.04-.01.13-.01.22,0,.1.01.19.01.3l.02.38,1.54.05h1.28Z"/>
        </g>
        <g>
          <path class="cls-12" d="m86.59,43.64c.55.34,1.08.98,1.08,2.27,0,1.46-1.65,1.57-2.25,1.57s-2.06.08-2.35.08c-.25,0-.28-.11-.28-.23v-.47c0-.2.06-1.29.06-1.78s-.03-2.17-.03-2.62.11-1.31.11-1.58-.04-.8-.04-.98c0-.12.1-.14.19-.14.05,0,.12.01.16.01.12,0,.31-.04.52-.04.27,0,.37.03,1.49.03s1.96.47,1.96,1.88c0,.7-.42,1.11-.84,1.34-.25.14-.53.24-.84.3.4.04.75.16,1.07.36Zm-.1,2.09c0-1.24-.98-1.55-1.21-1.58-.25-.03-1.79-.13-1.91-.13-.25,0-.26.03-.26.13,0,.12.01.27.01.64s-.03.68-.03.97-.01.61-.01.75c0,.16.04.17.12.17l.56.02c.38.01.89.09,1.34.09s1.39-.05,1.39-1.06Zm-3.27-4.45c0,.22-.04.95-.04,1.08,0,.16.04.16.22.16s.51.03.75.03c.23,0,.57-.03.95-.03s1.02-.06,1.02-.82c0-.71-.72-.99-1.43-1.1-.27-.04-.56-.06-.88-.06-.17,0-.36.01-.55.02l-.02.27c-.01.16-.01.33-.01.45Z"/>
          <path class="cls-12" d="m94.51,43.58c0,.73-.2,3.95-3.1,3.95-1.45,0-2.16-1.03-2.54-2.08-.22-.61-.34-1.3-.38-2.09,0-1.94,1.38-3.69,2.79-3.69.59,0,1.11-.02,1.49.23,1.43.96,1.74,3.11,1.74,3.68Zm-.89,0c0-1.76-.83-3.27-2.11-3.27-.4,0-.7-.03-1,.3-.31.31-1.32,1.19-1.32,2.88s.57,3.45,2.18,3.45,2.26-1.58,2.26-3.35Z"/>
          <path class="cls-12" d="m100.33,43.72c0,1.56-.69,3.93-2.38,3.93-2.37,0-2.55-2.92-2.55-4.08,0-3.1,1.53-3.85,2.48-3.85,2.34,0,2.46,2.42,2.46,4Zm-1.9.1c0-.55-.18-1.08-.5-1.08-.4,0-.54.71-.54,1.17,0,.43.03,1,.46,1s.57-.56.57-1.1Z"/>
          <path class="cls-12" d="m101.67,47.42c-.05,0-.11,0-.13-.01-.05,0-.08-.02-.08-.06,0-.03.02-.1.04-.16.03-.13-.05-.46-.05-.71s.05-3.08.1-3.37c.02-.19.03-.68.03-1.08,0-.22,0-.41-.01-.51-.01-.09-.01-.26-.01-.45,0-.41.02-.93.05-1.06.01-.09.06-.11.12-.11.06,0,.15.03.22.03.25,0,.55.02.8.01h.06c.17,0,.14.11.14.22,0,.13-.01.33,0,.64v.44c0,.51,0,1.26-.04,1.61-.01.12-.02.25-.02.38s.01.25.01.36l.02.37.17-.18c.1-.12.22-.23.31-.32.19-.17.86-.9,1.01-1.08.12-.17.7-.8,1-1.1.29-.32.94-1,1.01-1.13.09-.13.15-.17.23-.18.08,0,.2-.01.3,0,.05.01.08.04.08.08s-.03.08-.05.1c-.05.05-.51.53-.68.67-.16.14-1.14,1.35-1.25,1.51-.08.09-.38.42-.68.73l-.58.6c.13.16.26.3.38.44.2.25.44.51.57.64.26.26,1.21,1.45,1.41,1.63.2.17.7.83.8.93.02.03.03.05.03.09,0,.05-.08.09-.18.09-.14,0-1.2.03-1.39.03-.18,0-.28-.05-.42-.19-.14-.12-.88-1.15-1.11-1.4-.13-.12-.37-.39-.57-.64l-.39-.44c0,.16,0,.32-.01.46-.01.25-.02.55-.02.69,0,.15-.01.46-.01.74,0,.23.01.44.03.52.01.03.01.05.01.08,0,.11-.08.11-.15.11h-.43c-.13,0-.46.03-.67.03Z"/>
          <path class="cls-12" d="m108.18,40.23c0-.34.1-.42.22-.42.02,0,.05,0,.09.01.18.01.54-.02.85.01.18.02.24.08.24.17,0,.06-.02.14-.03.24-.03.25-.12.86-.13,1.89-.01.28-.01.58-.01.86,0,.76.02,1.45.02,1.64,0,.19.03.87.03,1.26,0,.12,0,.2-.01.25-.01.04-.01.14-.01.25,0,.3.02.75.02.92.01.2-.16.22-.32.2h-.98c-.25.01-.25-.15-.26-.33-.03-.17.06-.54.06-.92,0-.4.14-2.27.14-2.56s.04-1.78.04-2.04c0-.13.01-.38.02-.58l.02-.39v-.45Z"/>
          <path class="cls-12" d="m113.8,39.88c0-.31.32-.29.55-.29s.88-.03,1.19-.09c.3-.03.3.15.26.48-.02.16-.02,1.13-.02,2.14v2.43c0,.92.08,3.18.08,2.69,0,.13-.06.17-.17.17-.03,0-.08,0-.13-.01-.04-.01-.11-.01-.17-.01-.24,0-.59.04-.83.04-.29,0-.39-.12-.52-.4-.15-.29-.43-.95-.75-1.5-.16-.27-.45-.82-.71-1.3l-.47-.89v.41c0,.25-.01.51,0,.75,0,.48.01,2.26.06,2.55.01.05.01.1.01.13,0,.16-.08.16-.2.15-.17,0-.6.03-.84.06-.23.03-.26-.04-.25-.39,0-.33-.05-1.84-.09-3.14,0-.92.05-2.11.05-2.91,0-.31-.01-.57-.03-.72-.01-.1-.02-.17-.02-.25,0-.3.13-.34.28-.33.17.01.29.01.64-.06.12-.02.18-.02.24-.02.12,0,.18.02.5.02.45,0,.68.59.88.94.1.18.22.37.31.51l.16.25v-.59c0-.31,0-.67.01-.83Z"/>
          <path class="cls-12" d="m119.84,44.2c-.18-.02-.2-.09-.2-.15,0-.1.03-.2.09-.42.08-.26.15-.24.27-.23.1.01.45.06.88.11.46.05,1.07.17,1.4.18.16.01.22.1.25.19.01.05.02.12.01.18-.17,2.9-1.68,3.5-2.6,3.5-.68,0-2.96-.55-2.96-3.79,0-3.74,2.13-4.1,2.91-4.1,1.6,0,2.21,1.36,2.26,1.46.05.12.12.33.16.43.01.02.01.04.01.05,0,.06-.05.06-.19.14-.17.09-.56.3-.77.4-.2.12-.41.27-.59.39-.09.08-.15.11-.2.14-.03.02-.05.03-.09.03-.03.01-.05.02-.09.02-.09,0-.1-.12-.16-.19-.08-.1-.18-.37-.45-.37-.47,0-.69.93-.69,1.55s-.04,1.64.68,1.64c.34,0,.52-.27.6-.54.05-.16.08-.33.08-.54l-.22-.04c-.13-.02-.26-.04-.38-.05Z"/>
        </g>
      </g>
    </g>
  </g>
</svg>